<svg xmlns="http://www.w3.org/2000/svg" viewBox="0 0 1600 900">
  <defs>
    <linearGradient id="bg" x1="0" x2="0" y1="0" y2="1">
      <stop offset="0" stop-color="#0d2238"/>
      <stop offset="1" stop-color="#0a1724"/>
    </linearGradient>
  </defs>
  <rect width="1600" height="900" fill="url(#bg)"/>
  <g fill="#1f4e7a" opacity="0.9">
    <rect x="100" y="520" width="160" height="260"/>
    <rect x="280" y="480" width="120" height="300"/>
    <rect x="420" y="560" width="140" height="220"/>
    <rect x="600" y="500" width="180" height="280"/>
    <rect x="820" y="540" width="160" height="240"/>
    <rect x="1040" y="480" width="200" height="300"/>
    <rect x="1280" y="560" width="140" height="220"/>
  </g>
  <g stroke="#2a5f98" stroke-width="6" fill="none" opacity="0.85">
    <line x1="300" y1="360" x2="980" y2="360"/>
    <line x1="300" y1="360" x2="300" y2="520"/>
    <line x1="980" y1="360" x2="980" y2="520"/>
    <line x1="640" y1="360" x2="640" y2="200"/>
    <line x1="640" y1="200" x2="820" y2="200"/>
    <line x1="820" y1="200" x2="820" y2="360"/>
  </g>
  <rect x="0" y="860" width="1600" height="40" fill="#0c2136" opacity="0.65"/>
</svg>